<svg xmlns="http://www.w3.org/2000/svg" xmlns:xlink="http://www.w3.org/1999/xlink" xmlns:lucid="lucid" width="960" height="300"><g transform="translate(-60 -60)" lucid:page-tab-id="0_0"><path d="M0 0h1760v1360H0z" fill="#fff"/><path d="M640 80h360v260H640z" stroke="#000" stroke-width="2" fill="#fff"/><path d="M640 118h360M640 268h360" stroke="#000" stroke-width="2" fill="none"/><use xlink:href="#a" transform="matrix(1,0,0,1,648,80) translate(143.575 22.6)"/><use xlink:href="#b" transform="matrix(1,0,0,1,652,125.6) translate(0 27.89999999999999)"/><use xlink:href="#c" transform="matrix(1,0,0,1,652,125.6) translate(48.85 27.89999999999999)"/><use xlink:href="#d" transform="matrix(1,0,0,1,652,125.6) translate(0 49.49999999999999)"/><use xlink:href="#e" transform="matrix(1,0,0,1,652,125.6) translate(0 71.1)"/><use xlink:href="#f" transform="matrix(1,0,0,1,652,125.6) translate(0 92.70000000000002)"/><use xlink:href="#g" transform="matrix(1,0,0,1,652,125.6) translate(0 114.30000000000001)"/><use xlink:href="#h" transform="matrix(1,0,0,1,652,276.1327510917031) translate(0 20.799999999999997)"/><use xlink:href="#i" transform="matrix(1,0,0,1,652,276.1327510917031) translate(0 42.4)"/><path d="M80 90h360v240H80z" stroke="#000" stroke-width="2" fill="#fff"/><path d="M80 128h360M80 266h360" stroke="#000" stroke-width="2" fill="none"/><use xlink:href="#j" transform="matrix(1,0,0,1,88,90) translate(139.525 22.6)"/><use xlink:href="#k" transform="matrix(1,0,0,1,92,135.6) translate(0 43.5)"/><use xlink:href="#l" transform="matrix(1,0,0,1,92,135.6) translate(39 43.5)"/><use xlink:href="#m" transform="matrix(1,0,0,1,92,135.6) translate(101.95 43.5)"/><use xlink:href="#n" transform="matrix(1,0,0,1,92,135.6) translate(0 65.10000000000001)"/><use xlink:href="#o" transform="matrix(1,0,0,1,92,135.6) translate(77.95 65.10000000000001)"/><use xlink:href="#p" transform="matrix(1,0,0,1,92,135.6) translate(0 86.70000000000002)"/><g><use xlink:href="#q" transform="matrix(1,0,0,1,92,273.7243243243243) translate(0 28.1)"/></g><path d="M441 210h179.76" stroke="#000" stroke-width="2" fill="none"/><path d="M441 211h-1v-2h1zM635.76 210l-14.26 4.64v-9.28z"/><path d="M639 210l-18.5 6v-12zm-16.5 3.26l10.03-3.26-10.03-3.26z"/><g><use xlink:href="#r" transform="matrix(1,0,0,1,612.4999999999999,184.39999999999998) translate(0 14.4)"/></g><defs><path d="M205 0l-28-72H64L36 0H1l101-248h38L239 0h-34zm-38-99l-47-123c-12 45-31 82-46 123h93" id="s"/><path d="M24-231v-30h32v30H24zM24 0v-190h32V0H24" id="t"/><path d="M114-163C36-179 61-72 57 0H25l-1-190h30c1 12-1 29 2 39 6-27 23-49 58-41v29" id="u"/><path d="M96-169c-40 0-48 33-48 73s9 75 48 75c24 0 41-14 43-38l32 2c-6 37-31 61-74 61-59 0-76-41-82-99-10-93 101-131 147-64 4 7 5 14 7 22l-32 3c-4-21-16-35-41-35" id="v"/><path d="M141-36C126-15 110 5 73 4 37 3 15-17 15-53c-1-64 63-63 125-63 3-35-9-54-41-54-24 1-41 7-42 31l-33-3c5-37 33-52 76-52 45 0 72 20 72 64v82c-1 20 7 32 28 27v20c-31 9-61-2-59-35zM48-53c0 20 12 33 32 33 41-3 63-29 60-74-43 2-92-5-92 41" id="w"/><path d="M101-234c-31-9-42 10-38 44h38v23H63V0H32v-167H5v-23h27c-7-52 17-82 69-68v24" id="x"/><path d="M59-47c-2 24 18 29 38 22v24C64 9 27 4 27-40v-127H5v-23h24l9-43h21v43h35v23H59v120" id="y"/><g id="a"><use transform="matrix(0.05,0,0,0.05,0,0)" xlink:href="#s"/><use transform="matrix(0.05,0,0,0.05,12,0)" xlink:href="#t"/><use transform="matrix(0.05,0,0,0.05,15.949999999999998,0)" xlink:href="#u"/><use transform="matrix(0.05,0,0,0.05,21.9,0)" xlink:href="#v"/><use transform="matrix(0.05,0,0,0.05,30.899999999999995,0)" xlink:href="#u"/><use transform="matrix(0.05,0,0,0.05,36.85,0)" xlink:href="#w"/><use transform="matrix(0.05,0,0,0.05,46.85,0)" xlink:href="#x"/><use transform="matrix(0.05,0,0,0.05,51.85,0)" xlink:href="#y"/></g><path d="M63-220v92h138v28H63V0H30v-248h175v28H63" id="z"/><path d="M24 0v-261h32V0H24" id="A"/><path d="M177-190C167-65 218 103 67 71c-23-6-38-20-44-43l32-5c15 47 100 32 89-28v-30C133-14 115 1 83 1 29 1 15-40 15-95c0-56 16-97 71-98 29-1 48 16 59 35 1-10 0-23 2-32h30zM94-22c36 0 50-32 50-73 0-42-14-75-50-75-39 0-46 34-46 75s6 73 46 73" id="B"/><path d="M106-169C34-169 62-67 57 0H25v-261h32l-1 103c12-21 28-36 61-36 89 0 53 116 60 194h-32v-121c2-32-8-49-39-48" id="C"/><g id="b"><use transform="matrix(0.05,0,0,0.05,0,0)" xlink:href="#z"/><use transform="matrix(0.05,0,0,0.05,10.950000000000001,0)" xlink:href="#A"/><use transform="matrix(0.05,0,0,0.05,14.9,0)" xlink:href="#t"/><use transform="matrix(0.05,0,0,0.05,18.85,0)" xlink:href="#B"/><use transform="matrix(0.05,0,0,0.05,28.85,0)" xlink:href="#C"/><use transform="matrix(0.05,0,0,0.05,38.85,0)" xlink:href="#y"/></g><path d="M190 0L58-211 59 0H30v-248h39L202-35l-2-213h31V0h-41" id="D"/><path d="M84 4C-5 8 30-112 23-190h32v120c0 31 7 50 39 49 72-2 45-101 50-169h31l1 190h-30c-1-10 1-25-2-33-11 22-28 36-60 37" id="E"/><path d="M210-169c-67 3-38 105-44 169h-31v-121c0-29-5-50-35-48C34-165 62-65 56 0H25l-1-190h30c1 10-1 24 2 32 10-44 99-50 107 0 11-21 27-35 58-36 85-2 47 119 55 194h-31v-121c0-29-5-49-35-48" id="F"/><path d="M115-194c53 0 69 39 70 98 0 66-23 100-70 100C84 3 66-7 56-30L54 0H23l1-261h32v101c10-23 28-34 59-34zm-8 174c40 0 45-34 45-75 0-40-5-75-45-74-42 0-51 32-51 76 0 43 10 73 51 73" id="G"/><path d="M100-194c63 0 86 42 84 106H49c0 40 14 67 53 68 26 1 43-12 49-29l28 8c-11 28-37 45-77 45C44 4 14-33 15-96c1-61 26-98 85-98zm52 81c6-60-76-77-97-28-3 7-6 17-6 28h103" id="H"/><g id="c"><use transform="matrix(0.05,0,0,0.05,0,0)" xlink:href="#D"/><use transform="matrix(0.05,0,0,0.05,12.950000000000001,0)" xlink:href="#E"/><use transform="matrix(0.05,0,0,0.05,22.950000000000003,0)" xlink:href="#F"/><use transform="matrix(0.05,0,0,0.05,37.900000000000006,0)" xlink:href="#G"/><use transform="matrix(0.05,0,0,0.05,47.900000000000006,0)" xlink:href="#H"/><use transform="matrix(0.05,0,0,0.05,57.900000000000006,0)" xlink:href="#u"/></g><path d="M85-194c31 0 48 13 60 33l-1-100h32l1 261h-30c-2-10 0-23-3-31C134-8 116 4 85 4 32 4 16-35 15-94c0-66 23-100 70-100zm9 24c-40 0-46 34-46 75 0 40 6 74 45 74 42 0 51-32 51-76 0-42-9-74-50-73" id="I"/><g id="d"><use transform="matrix(0.05,0,0,0.05,0,0)" xlink:href="#s"/><use transform="matrix(0.05,0,0,0.05,12,0)" xlink:href="#A"/><use transform="matrix(0.05,0,0,0.05,15.949999999999998,0)" xlink:href="#y"/><use transform="matrix(0.05,0,0,0.05,20.95,0)" xlink:href="#t"/><use transform="matrix(0.05,0,0,0.05,24.9,0)" xlink:href="#y"/><use transform="matrix(0.05,0,0,0.05,29.899999999999995,0)" xlink:href="#E"/><use transform="matrix(0.05,0,0,0.05,39.9,0)" xlink:href="#I"/><use transform="matrix(0.05,0,0,0.05,49.9,0)" xlink:href="#H"/></g><path d="M30 0v-248h33v221h125V0H30" id="J"/><g id="e"><use transform="matrix(0.05,0,0,0.05,0,0)" xlink:href="#J"/><use transform="matrix(0.05,0,0,0.05,10,0)" xlink:href="#w"/><use transform="matrix(0.05,0,0,0.05,20,0)" xlink:href="#y"/><use transform="matrix(0.05,0,0,0.05,25,0)" xlink:href="#t"/><use transform="matrix(0.05,0,0,0.05,28.950000000000003,0)" xlink:href="#y"/><use transform="matrix(0.05,0,0,0.05,33.95,0)" xlink:href="#E"/><use transform="matrix(0.05,0,0,0.05,43.95,0)" xlink:href="#I"/><use transform="matrix(0.05,0,0,0.05,53.95,0)" xlink:href="#H"/></g><path d="M100-194c62-1 85 37 85 99 1 63-27 99-86 99S16-35 15-95c0-66 28-99 85-99zM99-20c44 1 53-31 53-75 0-43-8-75-51-75s-53 32-53 75 10 74 51 75" id="K"/><path d="M117-194c89-4 53 116 60 194h-32v-121c0-31-8-49-39-48C34-167 62-67 57 0H25l-1-190h30c1 10-1 24 2 32 11-22 29-35 61-36" id="L"/><g id="f"><use transform="matrix(0.05,0,0,0.05,0,0)" xlink:href="#J"/><use transform="matrix(0.05,0,0,0.05,10,0)" xlink:href="#K"/><use transform="matrix(0.05,0,0,0.05,20,0)" xlink:href="#L"/><use transform="matrix(0.05,0,0,0.05,30,0)" xlink:href="#B"/><use transform="matrix(0.05,0,0,0.05,40,0)" xlink:href="#t"/><use transform="matrix(0.05,0,0,0.05,43.95,0)" xlink:href="#y"/><use transform="matrix(0.05,0,0,0.05,48.95,0)" xlink:href="#E"/><use transform="matrix(0.05,0,0,0.05,58.95,0)" xlink:href="#I"/><use transform="matrix(0.05,0,0,0.05,68.95,0)" xlink:href="#H"/></g><path d="M197 0v-115H63V0H30v-248h33v105h134v-105h34V0h-34" id="M"/><g id="g"><use transform="matrix(0.05,0,0,0.05,0,0)" xlink:href="#M"/><use transform="matrix(0.05,0,0,0.05,12.950000000000001,0)" xlink:href="#H"/><use transform="matrix(0.05,0,0,0.05,22.950000000000003,0)" xlink:href="#w"/><use transform="matrix(0.05,0,0,0.05,32.95,0)" xlink:href="#I"/><use transform="matrix(0.05,0,0,0.05,42.95,0)" xlink:href="#t"/><use transform="matrix(0.05,0,0,0.05,46.900000000000006,0)" xlink:href="#L"/><use transform="matrix(0.05,0,0,0.05,56.900000000000006,0)" xlink:href="#B"/></g><path d="M30-248c118-7 216 8 213 122C240-48 200 0 122 0H30v-248zM63-27c89 8 146-16 146-99s-60-101-146-95v194" id="N"/><path d="M135-143c-3-34-86-38-87 0 15 53 115 12 119 90S17 21 10-45l28-5c4 36 97 45 98 0-10-56-113-15-118-90-4-57 82-63 122-42 12 7 21 19 24 35" id="O"/><path d="M87 75C49 33 22-17 22-94c0-76 28-126 65-167h31c-38 41-64 92-64 168S80 34 118 75H87" id="P"/><path d="M33-261c38 41 65 92 65 168S71 34 33 75H2C39 34 66-17 66-93S39-220 2-261h31" id="Q"/><g id="h"><use transform="matrix(0.05,0,0,0.05,0,0)" xlink:href="#N"/><use transform="matrix(0.05,0,0,0.05,12.950000000000001,0)" xlink:href="#H"/><use transform="matrix(0.05,0,0,0.05,22.950000000000003,0)" xlink:href="#u"/><use transform="matrix(0.05,0,0,0.05,28.900000000000002,0)" xlink:href="#F"/><use transform="matrix(0.05,0,0,0.05,43.85,0)" xlink:href="#t"/><use transform="matrix(0.05,0,0,0.05,47.800000000000004,0)" xlink:href="#L"/><use transform="matrix(0.05,0,0,0.05,57.800000000000004,0)" xlink:href="#H"/><use transform="matrix(0.05,0,0,0.05,67.80000000000001,0)" xlink:href="#N"/><use transform="matrix(0.05,0,0,0.05,80.75000000000001,0)" xlink:href="#t"/><use transform="matrix(0.05,0,0,0.05,84.70000000000002,0)" xlink:href="#O"/><use transform="matrix(0.05,0,0,0.05,93.70000000000002,0)" xlink:href="#y"/><use transform="matrix(0.05,0,0,0.05,98.70000000000002,0)" xlink:href="#w"/><use transform="matrix(0.05,0,0,0.05,108.7,0)" xlink:href="#L"/><use transform="matrix(0.05,0,0,0.05,118.7,0)" xlink:href="#v"/><use transform="matrix(0.05,0,0,0.05,127.7,0)" xlink:href="#H"/><use transform="matrix(0.05,0,0,0.05,137.70000000000002,0)" xlink:href="#P"/><use transform="matrix(0.05,0,0,0.05,143.65,0)" xlink:href="#Q"/></g><path d="M127-220V0H93v-220H8v-28h204v28h-85" id="R"/><path d="M33 0v-248h34V0H33" id="S"/><path d="M115-194c55 1 70 41 70 98S169 2 115 4C84 4 66-9 55-30l1 105H24l-1-265h31l2 30c10-21 28-34 59-34zm-8 174c40 0 45-34 45-75s-6-73-45-74c-42 0-51 32-51 76 0 43 10 73 51 73" id="T"/><g id="i"><use transform="matrix(0.05,0,0,0.05,0,0)" xlink:href="#N"/><use transform="matrix(0.05,0,0,0.05,12.950000000000001,0)" xlink:href="#H"/><use transform="matrix(0.05,0,0,0.05,22.950000000000003,0)" xlink:href="#u"/><use transform="matrix(0.05,0,0,0.05,28.900000000000002,0)" xlink:href="#F"/><use transform="matrix(0.05,0,0,0.05,43.85,0)" xlink:href="#t"/><use transform="matrix(0.05,0,0,0.05,47.800000000000004,0)" xlink:href="#L"/><use transform="matrix(0.05,0,0,0.05,57.800000000000004,0)" xlink:href="#H"/><use transform="matrix(0.05,0,0,0.05,67.80000000000001,0)" xlink:href="#R"/><use transform="matrix(0.05,0,0,0.05,78.10000000000001,0)" xlink:href="#t"/><use transform="matrix(0.05,0,0,0.05,82.05000000000001,0)" xlink:href="#F"/><use transform="matrix(0.05,0,0,0.05,97.00000000000001,0)" xlink:href="#H"/><use transform="matrix(0.05,0,0,0.05,107,0)" xlink:href="#R"/><use transform="matrix(0.05,0,0,0.05,115.95,0)" xlink:href="#K"/><use transform="matrix(0.05,0,0,0.05,125.95,0)" xlink:href="#S"/><use transform="matrix(0.05,0,0,0.05,130.95000000000002,0)" xlink:href="#F"/><use transform="matrix(0.05,0,0,0.05,145.9,0)" xlink:href="#T"/><use transform="matrix(0.05,0,0,0.05,155.9,0)" xlink:href="#w"/><use transform="matrix(0.05,0,0,0.05,165.9,0)" xlink:href="#v"/><use transform="matrix(0.05,0,0,0.05,174.9,0)" xlink:href="#y"/><use transform="matrix(0.05,0,0,0.05,179.9,0)" xlink:href="#P"/><use transform="matrix(0.05,0,0,0.05,185.85,0)" xlink:href="#Q"/></g><path d="M30-248c87 1 191-15 191 75 0 78-77 80-158 76V0H30v-248zm33 125c57 0 124 11 124-50 0-59-68-47-124-48v98" id="U"/><path d="M179-190L93 31C79 59 56 82 12 73V49c39 6 53-20 64-50L1-190h34L92-34l54-156h33" id="V"/><g id="j"><use transform="matrix(0.05,0,0,0.05,0,0)" xlink:href="#U"/><use transform="matrix(0.05,0,0,0.05,12,0)" xlink:href="#w"/><use transform="matrix(0.05,0,0,0.05,22,0)" xlink:href="#V"/><use transform="matrix(0.05,0,0,0.05,31,0)" xlink:href="#A"/><use transform="matrix(0.05,0,0,0.05,34.95,0)" xlink:href="#K"/><use transform="matrix(0.05,0,0,0.05,44.95,0)" xlink:href="#w"/><use transform="matrix(0.05,0,0,0.05,54.95,0)" xlink:href="#I"/></g><g id="k"><use transform="matrix(0.05,0,0,0.05,0,0)" xlink:href="#J"/><use transform="matrix(0.05,0,0,0.05,10,0)" xlink:href="#w"/><use transform="matrix(0.05,0,0,0.05,20,0)" xlink:href="#O"/><use transform="matrix(0.05,0,0,0.05,29,0)" xlink:href="#y"/></g><path d="M232-93c-1 65-40 97-104 97C67 4 28-28 28-90v-158h33c8 89-33 224 67 224 102 0 64-133 71-224h33v155" id="W"/><g id="l"><use transform="matrix(0.05,0,0,0.05,0,0)" xlink:href="#W"/><use transform="matrix(0.05,0,0,0.05,12.950000000000001,0)" xlink:href="#T"/><use transform="matrix(0.05,0,0,0.05,22.950000000000003,0)" xlink:href="#I"/><use transform="matrix(0.05,0,0,0.05,32.95,0)" xlink:href="#w"/><use transform="matrix(0.05,0,0,0.05,42.95,0)" xlink:href="#y"/><use transform="matrix(0.05,0,0,0.05,47.95,0)" xlink:href="#H"/></g><g id="m"><use transform="matrix(0.05,0,0,0.05,0,0)" xlink:href="#N"/><use transform="matrix(0.05,0,0,0.05,12.950000000000001,0)" xlink:href="#w"/><use transform="matrix(0.05,0,0,0.05,22.950000000000003,0)" xlink:href="#y"/><use transform="matrix(0.05,0,0,0.05,27.950000000000003,0)" xlink:href="#H"/></g><path d="M240 0l2-218c-23 76-54 145-80 218h-23L58-218 59 0H30v-248h44l77 211c21-75 51-140 76-211h43V0h-30" id="X"/><g id="n"><use transform="matrix(0.05,0,0,0.05,0,0)" xlink:href="#X"/><use transform="matrix(0.05,0,0,0.05,14.950000000000001,0)" xlink:href="#H"/><use transform="matrix(0.05,0,0,0.05,24.950000000000003,0)" xlink:href="#O"/><use transform="matrix(0.05,0,0,0.05,33.95,0)" xlink:href="#O"/><use transform="matrix(0.05,0,0,0.05,42.95,0)" xlink:href="#w"/><use transform="matrix(0.05,0,0,0.05,52.95,0)" xlink:href="#B"/><use transform="matrix(0.05,0,0,0.05,62.95,0)" xlink:href="#H"/></g><path d="M212-179c-10-28-35-45-73-45-59 0-87 40-87 99 0 60 29 101 89 101 43 0 62-24 78-52l27 14C228-24 195 4 139 4 59 4 22-46 18-125c-6-104 99-153 187-111 19 9 31 26 39 46" id="Y"/><g id="o"><use transform="matrix(0.05,0,0,0.05,0,0)" xlink:href="#Y"/><use transform="matrix(0.05,0,0,0.05,12.950000000000001,0)" xlink:href="#K"/><use transform="matrix(0.05,0,0,0.05,22.950000000000003,0)" xlink:href="#E"/><use transform="matrix(0.05,0,0,0.05,32.95,0)" xlink:href="#L"/><use transform="matrix(0.05,0,0,0.05,42.95,0)" xlink:href="#y"/></g><g id="p"><use transform="matrix(0.05,0,0,0.05,0,0)" xlink:href="#s"/><use transform="matrix(0.05,0,0,0.05,12,0)" xlink:href="#t"/><use transform="matrix(0.05,0,0,0.05,15.949999999999998,0)" xlink:href="#u"/><use transform="matrix(0.05,0,0,0.05,21.9,0)" xlink:href="#v"/><use transform="matrix(0.05,0,0,0.05,30.899999999999995,0)" xlink:href="#u"/><use transform="matrix(0.05,0,0,0.05,36.85,0)" xlink:href="#w"/><use transform="matrix(0.05,0,0,0.05,46.85,0)" xlink:href="#x"/><use transform="matrix(0.05,0,0,0.05,51.85,0)" xlink:href="#y"/><use transform="matrix(0.05,0,0,0.05,56.85,0)" xlink:href="#O"/></g><path d="M233-177c-1 41-23 64-60 70L243 0h-38l-65-103H63V0H30v-248c88 3 205-21 203 71zM63-129c60-2 137 13 137-47 0-61-80-42-137-45v92" id="Z"/><g id="q"><use transform="matrix(0.05,0,0,0.05,0,0)" xlink:href="#Z"/><use transform="matrix(0.05,0,0,0.05,12.950000000000001,0)" xlink:href="#H"/><use transform="matrix(0.05,0,0,0.05,22.950000000000003,0)" xlink:href="#x"/><use transform="matrix(0.05,0,0,0.05,27.950000000000003,0)" xlink:href="#u"/><use transform="matrix(0.05,0,0,0.05,33.900000000000006,0)" xlink:href="#H"/><use transform="matrix(0.05,0,0,0.05,43.900000000000006,0)" xlink:href="#O"/><use transform="matrix(0.05,0,0,0.05,52.900000000000006,0)" xlink:href="#C"/><use transform="matrix(0.05,0,0,0.05,62.900000000000006,0)" xlink:href="#P"/><use transform="matrix(0.05,0,0,0.05,68.85000000000001,0)" xlink:href="#Q"/></g><path d="M101-251c68 0 85 55 85 127S166 4 100 4C33 4 14-52 14-124c0-73 17-127 87-127zm-1 229c47 0 54-49 54-102s-4-102-53-102c-51 0-55 48-55 102 0 53 5 102 54 102" id="aa"/><path d="M33 0v-38h34V0H33" id="ab"/><path d="M80-196l47-18 7 23-49 13 32 44-20 13-27-46-27 45-21-12 33-44-49-13 8-23 47 19-2-53h23" id="ac"/><g id="r"><use transform="matrix(0.05,0,0,0.05,0,0)" xlink:href="#aa"/><use transform="matrix(0.05,0,0,0.05,10,0)" xlink:href="#ab"/><use transform="matrix(0.05,0,0,0.05,15,0)" xlink:href="#ab"/><use transform="matrix(0.05,0,0,0.05,20,0)" xlink:href="#ac"/></g></defs></g></svg>